<svg xmlns="http://www.w3.org/2000/svg" xmlns:xlink="http://www.w3.org/1999/xlink" width="2000" zoomAndPan="magnify" viewBox="0 0 1500 1499.999933" height="2000" preserveAspectRatio="xMidYMid meet" version="1.0"><defs><g/></defs><g fill="#000000" fill-opacity="1"><g transform="translate(174.967621, 874.181281)"><g><path d="M 356.046875 -248.03125 L 286.765625 0 L 228.125 0 L 181.578125 -176.609375 L 132.90625 0 L 74.625 0.359375 L 7.8125 -248.03125 L 61.125 -248.03125 L 104.828125 -55.4375 L 155.28125 -248.03125 L 210.71875 -248.03125 L 258.328125 -56.5 L 302.390625 -248.03125 Z M 356.046875 -248.03125 "/></g></g></g><g fill="#000000" fill-opacity="1"><g transform="translate(517.327189, 874.068481)"><g><path d="M 11.71875 -99.140625 C 11.71875 -119.035156 15.6875 -136.679688 23.625 -152.078125 C 31.5625 -167.484375 42.34375 -179.332031 55.96875 -187.625 C 69.59375 -195.914062 84.8125 -200.0625 101.625 -200.0625 C 116.3125 -200.0625 129.160156 -197.097656 140.171875 -191.171875 C 151.191406 -185.253906 160.019531 -177.789062 166.65625 -168.78125 L 166.65625 -196.859375 L 216.765625 -196.859375 L 216.765625 0 L 166.65625 0 L 166.65625 -28.78125 C 160.257812 -19.539062 151.429688 -11.898438 140.171875 -5.859375 C 128.921875 0.179688 115.953125 3.203125 101.265625 3.203125 C 84.691406 3.203125 69.59375 -1.0625 55.96875 -9.59375 C 42.34375 -18.125 31.5625 -30.144531 23.625 -45.65625 C 15.6875 -61.175781 11.71875 -79.003906 11.71875 -99.140625 Z M 166.65625 -98.4375 C 166.65625 -110.507812 164.285156 -120.867188 159.546875 -129.515625 C 154.804688 -138.171875 148.410156 -144.804688 140.359375 -149.421875 C 132.304688 -154.035156 123.660156 -156.34375 114.421875 -156.34375 C 105.179688 -156.34375 96.648438 -154.09375 88.828125 -149.59375 C 81.015625 -145.09375 74.679688 -138.519531 69.828125 -129.875 C 64.972656 -121.226562 62.546875 -110.984375 62.546875 -99.140625 C 62.546875 -87.296875 64.972656 -76.929688 69.828125 -68.046875 C 74.679688 -59.160156 81.078125 -52.347656 89.015625 -47.609375 C 96.953125 -42.878906 105.421875 -40.515625 114.421875 -40.515625 C 123.660156 -40.515625 132.304688 -42.820312 140.359375 -47.4375 C 148.410156 -52.0625 154.804688 -58.695312 159.546875 -67.34375 C 164.285156 -75.988281 166.65625 -86.351562 166.65625 -98.4375 Z M 166.65625 -98.4375 "/></g></g></g><g fill="#000000" fill-opacity="1"><g transform="translate(751.142024, 874.068481)"><g><path d="M 49.75 -220.3125 C 40.976562 -220.3125 33.691406 -223.09375 27.890625 -228.65625 C 22.085938 -234.226562 19.1875 -241.160156 19.1875 -249.453125 C 19.1875 -257.742188 22.085938 -264.671875 27.890625 -270.234375 C 33.691406 -275.804688 40.976562 -278.59375 49.75 -278.59375 C 58.507812 -278.59375 65.789062 -275.804688 71.59375 -270.234375 C 77.40625 -264.671875 80.3125 -257.742188 80.3125 -249.453125 C 80.3125 -241.160156 77.40625 -234.226562 71.59375 -228.65625 C 65.789062 -223.09375 58.507812 -220.3125 49.75 -220.3125 Z M 74.265625 -196.859375 L 74.265625 0 L 24.515625 0 L 24.515625 -196.859375 Z M 74.265625 -196.859375 "/></g></g></g><g fill="#000000" fill-opacity="1"><g transform="translate(842.8202, 874.068481)"><g><path d="M 82.4375 -156 L 82.4375 -60.765625 C 82.4375 -54.128906 84.035156 -49.332031 87.234375 -46.375 C 90.429688 -43.414062 95.820312 -41.9375 103.40625 -41.9375 L 126.5 -41.9375 L 126.5 0 L 95.234375 0 C 53.304688 0 32.34375 -20.375 32.34375 -61.125 L 32.34375 -156 L 8.890625 -156 L 8.890625 -196.859375 L 32.34375 -196.859375 L 32.34375 -245.546875 L 82.4375 -245.546875 L 82.4375 -196.859375 L 126.5 -196.859375 L 126.5 -156 Z M 82.4375 -156 "/></g></g></g><g fill="#000000" fill-opacity="1"><g transform="translate(973.596684, 874.068481)"><g><path d="M 73.90625 -196.859375 L 100.203125 -59.34375 L 176.609375 -196.859375 L 229.546875 -196.859375 L 56.5 93.09375 L 3.546875 93.09375 L 63.25 -4.96875 L 18.125 -196.859375 Z M 73.90625 -196.859375 "/></g></g></g><g fill="#000000" fill-opacity="1"><g transform="translate(1181.475569, 874.068481)"><g><path d="M 74.265625 -166.296875 C 80.660156 -176.722656 89.007812 -184.894531 99.3125 -190.8125 C 109.625 -196.738281 121.410156 -199.703125 134.671875 -199.703125 L 134.671875 -147.46875 L 121.53125 -147.46875 C 105.894531 -147.46875 94.109375 -143.796875 86.171875 -136.453125 C 78.234375 -129.109375 74.265625 -116.316406 74.265625 -98.078125 L 74.265625 0 L 24.515625 0 L 24.515625 -196.859375 L 74.265625 -196.859375 Z M 74.265625 -166.296875 "/></g></g></g></svg>